<svg width="32" height="32" viewBox="0 0 32 32" fill="none" xmlns="http://www.w3.org/2000/svg">
<path d="M11.3346 25.3333C10.9391 25.3333 10.5524 25.4506 10.2235 25.6704C9.8946 25.8902 9.63825 26.2025 9.48688 26.568C9.3355 26.9334 9.29589 27.3356 9.37306 27.7235C9.45024 28.1115 9.64072 28.4678 9.92042 28.7475C10.2001 29.0273 10.5565 29.2177 10.9445 29.2949C11.3324 29.3721 11.7346 29.3325 12.1 29.1811C12.4655 29.0297 12.7778 28.7734 12.9976 28.4445C13.2173 28.1156 13.3346 27.7289 13.3346 27.3333C13.3346 26.8029 13.1239 26.2942 12.7488 25.9191C12.3738 25.544 11.8651 25.3333 11.3346 25.3333ZM25.3346 21.3333H9.33464C8.98101 21.3333 8.64188 21.1929 8.39183 20.9428C8.14178 20.6928 8.0013 20.3536 8.0013 20C8.0013 19.6464 8.14178 19.3072 8.39183 19.0572C8.64188 18.8071 8.98101 18.6667 9.33464 18.6667H20.6562C21.5248 18.6639 22.3691 18.3797 23.0625 17.8567C23.756 17.3336 24.2612 16.6 24.5026 15.7656L26.6165 8.36653C26.6733 8.1681 26.6831 7.9592 26.6454 7.7563C26.6077 7.5534 26.5233 7.36202 26.3991 7.19724C26.2748 7.03246 26.114 6.89878 25.9293 6.80671C25.7446 6.71464 25.541 6.6667 25.3346 6.66667H8.98673C8.71071 5.88981 8.20189 5.21695 7.5296 4.73975C6.85731 4.26256 6.05424 4.00424 5.22982 4H4.0013C3.64768 4 3.30854 4.14048 3.05849 4.39052C2.80844 4.64057 2.66797 4.97971 2.66797 5.33333C2.66797 5.68696 2.80844 6.02609 3.05849 6.27614C3.30854 6.52619 3.64768 6.66667 4.0013 6.66667H5.22982C5.51927 6.66768 5.80059 6.76242 6.03168 6.93671C6.26277 7.11099 6.43119 7.35545 6.51172 7.63347L6.71908 8.35979L6.7194 8.36653L8.9069 16.0228C7.88898 16.1323 6.9518 16.6279 6.28832 17.4076C5.62485 18.1873 5.28559 19.1918 5.3404 20.2141C5.39522 21.2364 5.83994 22.1988 6.58299 22.9031C7.32603 23.6074 8.31084 24 9.33464 24H25.3346C25.6883 24 26.0274 23.8595 26.2774 23.6095C26.5275 23.3594 26.668 23.0203 26.668 22.6667C26.668 22.313 26.5275 21.9739 26.2774 21.7239C26.0274 21.4738 25.6883 21.3333 25.3346 21.3333ZM23.5671 9.33333L21.9388 15.0325C21.8584 15.3108 21.6899 15.5555 21.4587 15.7299C21.2274 15.9043 20.9459 15.9991 20.6562 16H11.6738L11.3339 14.8104L9.76986 9.33333H23.5671ZM22.0013 25.3333C21.6057 25.3333 21.2191 25.4506 20.8902 25.6704C20.5613 25.8902 20.3049 26.2025 20.1535 26.568C20.0022 26.9334 19.9626 27.3356 20.0397 27.7235C20.1169 28.1115 20.3074 28.4678 20.5871 28.7475C20.8668 29.0273 21.2232 29.2177 21.6111 29.2949C21.9991 29.3721 22.4012 29.3325 22.7667 29.1811C23.1321 29.0297 23.4445 28.7734 23.6642 28.4445C23.884 28.1156 24.0013 27.7289 24.0013 27.3333C24.0013 26.8029 23.7906 26.2942 23.4155 25.9191C23.0404 25.544 22.5317 25.3333 22.0013 25.3333Z" fill="#000000"/>
</svg>
