<svg width="24" height="24" viewBox="0 0 24 24" fill="none" xmlns="http://www.w3.org/2000/svg">
<path d="M11.9966 2C10.0571 2.00369 8.16051 2.57131 6.53786 3.63374C4.91521 4.69617 3.63653 6.20754 2.85757 7.98377C2.07862 9.76 1.83301 11.7244 2.15066 13.6378C2.46831 15.5511 3.33551 17.3308 4.64663 18.76C5.58305 19.775 6.71957 20.5851 7.98457 21.1392C9.24956 21.6933 10.6156 21.9793 11.9966 21.9793C13.3776 21.9793 14.7437 21.6933 16.0087 21.1392C17.2737 20.5851 18.4102 19.775 19.3466 18.76C20.6578 17.3308 21.525 15.5511 21.8426 13.6378C22.1603 11.7244 21.9146 9.76 21.1357 7.98377C20.3567 6.20754 19.0781 4.69617 17.4554 3.63374C15.8327 2.57131 13.9362 2.00369 11.9966 2ZM11.9966 20C9.9251 19.9969 7.93555 19.1903 6.44663 17.75C6.89867 16.6495 7.66766 15.7083 8.65588 15.0459C9.6441 14.3835 10.8069 14.0298 11.9966 14.0298C13.1863 14.0298 14.3492 14.3835 15.3374 15.0459C16.3256 15.7083 17.0946 16.6495 17.5466 17.75C16.0577 19.1903 14.0682 19.9969 11.9966 20ZM9.99663 10C9.99663 9.60444 10.1139 9.21776 10.3337 8.88886C10.5535 8.55996 10.8658 8.30362 11.2313 8.15224C11.5967 8.00087 11.9988 7.96126 12.3868 8.03843C12.7748 8.1156 13.1311 8.30608 13.4108 8.58579C13.6905 8.86549 13.881 9.22186 13.9582 9.60982C14.0354 9.99778 13.9958 10.3999 13.8444 10.7654C13.693 11.1308 13.4367 11.4432 13.1078 11.6629C12.7789 11.8827 12.3922 12 11.9966 12C11.4662 12 10.9575 11.7893 10.5824 11.4142C10.2073 11.0391 9.99663 10.5304 9.99663 10ZM18.9066 16C18.0132 14.4718 16.638 13.283 14.9966 12.62C15.5058 12.0427 15.8376 11.3307 15.9521 10.5694C16.0666 9.80822 15.9591 9.03011 15.6424 8.3285C15.3257 7.62688 14.8132 7.03156 14.1665 6.61397C13.5199 6.19637 12.7664 5.97425 11.9966 5.97425C11.2268 5.97425 10.4734 6.19637 9.82672 6.61397C9.18005 7.03156 8.6676 7.62688 8.35088 8.3285C8.03416 9.03011 7.92662 9.80822 8.04116 10.5694C8.1557 11.3307 8.48746 12.0427 8.99663 12.62C7.35523 13.283 5.9801 14.4718 5.08663 16C4.37457 14.7871 3.99835 13.4065 3.99663 12C3.99663 9.87827 4.83949 7.84344 6.33978 6.34315C7.84007 4.84285 9.8749 4 11.9966 4C14.1184 4 16.1532 4.84285 17.6535 6.34315C19.1538 7.84344 19.9966 9.87827 19.9966 12C19.9949 13.4065 19.6187 14.7871 18.9066 16Z" fill="#333333"/>
</svg>
